<?xml version="1.0" standalone="no"?>
<!DOCTYPE svg PUBLIC "-//W3C//DTD SVG 20010904//EN"
 "http://www.w3.org/TR/2001/REC-SVG-20010904/DTD/svg10.dtd">
<svg version="1.0" xmlns="http://www.w3.org/2000/svg"
 width="1261.000000pt" height="839.000000pt" viewBox="0 0 1261.000000 839.000000"
 preserveAspectRatio="xMidYMid meet">

<g transform="translate(0.000000,839.000000) scale(0.100000,-0.100000)"
fill="#FFFFFF" stroke="none">
<path d="M7125 6245 c-116 -669 -508 -1493 -943 -1983 -77 -87 -59 -86 -260
-11 -610 228 -960 465 -1281 868 -200 251 -388 578 -506 881 -20 52 -39 97
-41 99 -6 6 -73 -149 -110 -253 -19 -55 -47 -156 -62 -225 -24 -115 -26 -145
-27 -351 0 -196 3 -240 23 -340 82 -405 262 -721 585 -1026 335 -317 715 -459
1176 -441 221 9 439 49 604 111 187 70 602 142 887 153 179 6 262 -4 405 -52
39 -13 71 -22 73 -20 6 6 -155 138 -203 166 -77 44 -185 83 -350 125 -82 20
-152 39 -154 40 -2 2 25 35 60 73 383 428 538 1021 413 1578 -45 203 -135 421
-237 578 l-45 69 -7 -39z"/>
<path d="M6267 2924 c-4 -4 -7 -211 -7 -461 l0 -453 60 0 60 0 -2 458 -3 457
-50 3 c-28 2 -54 0 -58 -4z"/>
<path d="M9540 2772 l0 -159 -52 9 c-29 6 -98 8 -153 6 -111 -5 -157 -21 -215
-80 -59 -59 -75 -108 -75 -233 0 -96 3 -116 24 -155 35 -67 88 -118 148 -140
63 -23 225 -27 358 -7 l80 12 0 450 0 450 -57 3 -58 3 0 -159z m-17 -257 c15
-6 17 -26 17 -205 l0 -197 -37 -7 c-61 -10 -199 -7 -230 5 -71 27 -116 103
-116 199 -1 36 5 81 11 101 14 39 63 92 102 108 27 12 223 9 253 -4z"/>
<path d="M6772 2628 c-174 -26 -280 -183 -251 -372 27 -169 144 -259 334 -257
86 0 227 28 226 44 -1 4 -1 19 -1 35 0 52 -7 54 -111 36 -52 -9 -115 -14 -141
-11 -89 11 -157 63 -178 137 l-9 30 237 2 237 3 3 58 c6 117 -49 221 -140 268
-49 25 -139 37 -206 27z m156 -113 c37 -22 71 -74 79 -119 l6 -36 -187 0 -188
0 7 33 c14 66 60 117 124 138 38 12 126 3 159 -16z"/>
<path d="M8603 2629 c-104 -13 -191 -79 -236 -178 -30 -65 -30 -207 -1 -272
75 -164 266 -225 494 -156 l45 13 -3 44 c-2 24 -5 46 -7 48 -2 2 -44 -3 -92
-12 -48 -9 -104 -16 -124 -16 -48 0 -117 25 -147 53 -24 22 -62 88 -62 107 0
7 79 10 235 10 l235 0 1 43 c4 112 -12 172 -65 234 -52 62 -164 96 -273 82z
m124 -104 c63 -26 93 -64 108 -132 l7 -33 -186 0 c-181 0 -186 1 -186 20 0 26
32 90 57 112 51 46 135 60 200 33z"/>
<path d="M3110 2615 c-87 -28 -137 -103 -127 -192 9 -79 66 -119 217 -153 123
-27 158 -43 166 -74 25 -101 -132 -133 -324 -66 -31 11 -56 19 -57 17 -9 -12
-22 -94 -17 -99 20 -20 173 -49 258 -50 77 0 100 3 146 24 73 34 101 74 106
153 6 109 -37 146 -224 190 -136 32 -156 44 -152 92 5 56 41 77 127 76 37 -1
96 -8 130 -17 35 -9 66 -16 71 -16 11 0 33 66 28 82 -12 36 -264 61 -348 33z"/>
<path d="M3770 2621 c-114 -35 -181 -116 -201 -244 -25 -152 39 -297 154 -350
94 -44 192 -42 289 6 47 23 47 23 50 3 3 -18 11 -21 61 -24 l57 -3 -2 298 -3
298 -80 12 c-89 13 -287 15 -325 4z m259 -97 l31 -7 -2 -180 -3 -181 -49 -25
c-58 -30 -160 -40 -206 -21 -43 18 -97 82 -111 132 -16 59 -6 148 23 199 35
65 89 89 198 89 48 0 102 -3 119 -6z"/>
<path d="M4462 2620 c-114 -16 -102 20 -102 -316 l0 -295 58 3 57 3 3 245 c2
180 6 246 15 252 6 4 58 8 114 8 99 0 104 -1 135 -29 l33 -29 5 -224 5 -223
58 0 58 0 -1 228 c0 125 -3 233 -6 241 -13 34 203 51 255 20 53 -31 56 -43 61
-274 l5 -215 58 -3 58 -3 -3 245 -3 244 -30 43 c-50 70 -89 84 -235 84 -88 -1
-141 -6 -178 -18 -51 -15 -56 -15 -85 0 -37 20 -230 27 -335 13z"/>
<path d="M5580 2617 l-75 -12 -3 -442 -2 -443 60 0 60 0 0 148 0 149 129 -5
c160 -6 211 8 281 77 67 65 93 139 88 246 -7 128 -58 217 -153 268 -34 19 -59
22 -175 24 -74 1 -169 -4 -210 -10z m307 -98 c71 -27 112 -100 113 -198 0
-128 -65 -202 -186 -209 -35 -3 -93 -1 -129 3 l-65 7 0 198 c0 198 0 199 23
203 47 9 217 7 244 -4z"/>
<path d="M7352 2619 c-114 -14 -102 21 -102 -315 l0 -295 58 3 57 3 3 245 c2
180 6 246 15 252 6 4 58 8 114 8 98 0 104 -1 134 -28 41 -37 48 -78 49 -299
l0 -183 55 0 56 0 -3 244 -3 245 42 10 c56 14 176 14 207 -1 56 -25 61 -45 66
-278 l5 -215 58 -3 57 -3 0 233 c0 223 -1 236 -22 278 -14 26 -41 57 -66 75
-43 30 -45 30 -175 30 -95 -1 -147 -5 -185 -17 -50 -16 -54 -16 -95 2 -34 16
-63 19 -152 19 -60 -1 -138 -5 -173 -10z"/>
</g>
</svg>
